<?xml version="1.0" encoding="UTF-8" standalone="no"?>
<svg
   version="1.0"
   width="253.98425pt"
   height="37.635235pt"
   viewBox="0 0 253.98425 37.635235"
   preserveAspectRatio="xMidYMid"
   id="svg16"
   sodipodi:docname="stg_logo.svg"
   inkscape:version="1.4 (e7c3feb100, 2024-10-09)"
   xmlns:inkscape="http://www.inkscape.org/namespaces/inkscape"
   xmlns:sodipodi="http://sodipodi.sourceforge.net/DTD/sodipodi-0.dtd"
   xmlns="http://www.w3.org/2000/svg"
   xmlns:svg="http://www.w3.org/2000/svg">
  <defs
     id="defs16" />
  <sodipodi:namedview
     id="namedview16"
     pagecolor="#ffffff"
     bordercolor="#000000"
     borderopacity="0.25"
     inkscape:showpageshadow="2"
     inkscape:pageopacity="0.0"
     inkscape:pagecheckerboard="0"
     inkscape:deskcolor="#d1d1d1"
     inkscape:document-units="pt"
     inkscape:zoom="2.6073529"
     inkscape:cx="117.74394"
     inkscape:cy="18.025945"
     inkscape:window-width="3440"
     inkscape:window-height="1403"
     inkscape:window-x="0"
     inkscape:window-y="0"
     inkscape:window-maximized="1"
     inkscape:current-layer="g44">
    <inkscape:page
       x="1.9852335e-23"
       y="0"
       width="253.98425"
       height="37.635235"
       id="page2"
       margin="0"
       bleed="0" />
  </sodipodi:namedview>
  <metadata
     id="metadata1">
Created by potrace 1.10, written by Peter Selinger 2001-2011
</metadata>
  <g
     id="g44"
     transform="translate(-0.54714071,-1.1003152)"
     inkscape:export-filename="slogo.svg"
     inkscape:export-xdpi="96"
     inkscape:export-ydpi="96">
    <g
       id="text42"
       style="font-size:36.5668px;fill:#630021;stroke-width:3.04723"
       transform="scale(0.98229921,1.0180198)"
       aria-label="Skipthegames">
      <path
         style="font-weight:bold;font-family:Diavlo;-inkscape-font-specification:'Diavlo Bold';fill:#990033"
         d="m 0.55699989,10.185978 c 0,10.531238 15.90655811,4.717117 15.90655811,11.481975 0,2.486542 -1.864907,3.985781 -5.667854,3.985781 -3.5469799,0 -8.3372306,-0.658202 -8.3372306,-4.205182 -0.9141699,1.316405 -1.3164047,2.449976 -1.3164047,3.400712 0,3.43728 5.0827851,4.57085 9.6536353,4.57085 6.216356,0 10.750639,-2.669376 10.750639,-8.081262 0,-11.5916757 -15.9431248,-5.667854 -15.9431248,-11.7013761 0,-2.4865423 2.3037083,-3.4007123 5.4850198,-3.4007123 4.058915,0 8.373797,0.7679028 8.373797,4.4245824 0.80447,-1.4626717 1.206704,-2.7059428 1.206704,-3.6932464 0,-3.5104127 -4.351449,-4.5342831 -9.617068,-4.5342831 -5.777554,0 -10.49467111,1.82834 -10.49467111,7.7521615 z M 41.072988,10.368812 c -0.804469,-0.255968 -1.718639,-0.4388017 -2.596243,-0.4388017 -1.426105,0 -2.815643,0.4753687 -3.510412,1.7917727 -1.645506,3.108178 -2.852211,4.717118 -5.009652,5.046219 V 3.4576869 c 0,-2.376842 -4.753684,-2.376842 -4.753684,-2.376842 V 26.897005 c 0,2.376842 4.753684,2.376842 4.753684,2.376842 v -8.849165 c 7.532761,1.243271 4.68055,8.849165 9.726769,8.849165 0.731336,0 2.705943,-0.475368 2.705943,-0.475368 -2.230575,-4.022348 -2.413409,-8.446931 -7.861862,-10.384971 3.291012,-1.316405 4.534283,-5.302186 6.545457,-8.044696 z m 3.510438,16.528193 c 0,2.376842 4.753683,2.376842 4.753683,2.376842 V 12.306852 c 0,-2.3402749 -4.461149,-2.3768417 -4.753683,-2.3768417 z m 0.1097,-20.6968082 c 0,0.5119352 0.585069,1.0604372 1.352972,1.0604372 h 3.217878 V 4.2255897 c 0,-0.5119352 -0.767903,-1.0604372 -1.352972,-1.0604372 H 44.693126 Z M 58.47881,30.15145 c 0,-0.91417 -0.292534,-2.120874 -0.292534,-2.120874 0,0 1.682073,1.426105 4.717117,1.426105 3.912647,0 7.31336,-2.376842 7.31336,-6.326056 v -7.020826 c 0,-4.058914 -2.998478,-6.3626227 -8.22753,-6.3626227 -1.535806,0 -3.400712,0.6947697 -5.338753,0.6947697 -0.987303,0 -1.974607,-0.219401 -2.925344,-0.6947697 V 35.307369 c 0,2.779077 4.424583,2.74251 4.753684,2.74251 z m 0,-16.491626 c 0,0 1.426105,-0.438802 3.071611,-0.438802 3.035045,0 3.912648,1.133571 3.912648,3.437279 v 5.923822 c 0,2.376842 -1.279838,3.400712 -3.035044,3.400712 -1.974608,0 -3.949215,-1.243271 -3.949215,-3.035044 z m 15.796883,9.3611 c 0,4.058915 2.74251,6.435757 7.532761,6.435757 4.388016,0 6.50889,-1.93804 6.50889,-4.168615 0,-1.133571 -0.548502,-2.157441 -1.535806,-3.254445 0,2.925344 -2.194008,3.839514 -4.314882,3.839514 -2.779077,0 -3.473846,-1.426105 -3.473846,-3.876081 v -7.349927 h 4.753684 c 2.669376,0 2.705943,-3.583546 2.705943,-3.583546 H 78.99281 V 9.7471763 c 0,-3.1081779 -3.76638,-3.1081779 -4.717117,-3.1081779 z"
         id="path17" />
      <path
         style="font-weight:bold;font-family:Diavlo;-inkscape-font-specification:'Diavlo Bold';letter-spacing:-0.808381px;fill:#990033"
         d="m 95.265027,16.256067 c 0,-1.791774 1.974607,-3.035045 3.949214,-3.035045 1.755209,0 3.035049,1.023871 3.035049,3.400713 v 10.27527 c 0,2.303708 4.75368,2.376842 4.75368,2.376842 V 16.073233 c 0,-4.278316 -3.40071,-6.3260567 -7.31336,-6.3260567 -2.961911,0 -4.717117,1.4261047 -4.717117,1.4261047 0,0 0.292534,-1.2798375 0.292534,-2.1940075 v -5.082785 c 0,-2.8522104 -4.497716,-2.74251 -4.753684,-2.74251 V 26.897005 c 0,2.376842 4.753684,2.376842 4.753684,2.376842 z"
         id="path18" />
      <path
         style="font-weight:bold;font-family:Diavlo;-inkscape-font-specification:'Diavlo Bold';letter-spacing:0px;fill:#990033"
         d="m 114.97059,16.731435 c 0,-2.230575 0.69477,-3.510413 3.18132,-3.510413 2.26714,0 3.10817,1.060437 3.10817,2.596243 0,1.462672 -0.91417,2.303708 -3.54698,2.303708 -1.097,0 -2.37684,-0.255967 -2.74251,-0.329101 z m 4.05892,12.725246 c 4.20518,0 7.24023,-1.755206 7.24023,-4.388016 0,-0.91417 -0.36567,-1.901473 -1.13358,-2.998477 -0.0366,2.194008 -2.48654,3.729813 -6.10665,3.729813 -2.74251,0 -4.05892,-1.133571 -4.05892,-3.327579 v -1.316404 c 1.09701,0.438801 2.26715,0.658202 3.43728,0.658202 5.77756,0 7.6059,-2.888777 7.6059,-5.996955 0,-3.65668 -2.48654,-6.0700887 -7.7156,-6.0700887 -5.22905,0 -8.08126,2.4134087 -8.08126,6.4357567 v 6.837991 c 0,4.022348 3.25445,6.435757 8.8126,6.435757 z m 9.94614,-3.876081 c 0,3.693247 3.36414,4.168615 7.20365,4.168615 h 1.79178 c 2.12087,0 3.58354,0.182834 3.58354,1.901474 0,1.682073 -1.13357,2.74251 -4.38801,2.74251 -3.07161,0 -6.10666,-0.694769 -6.43576,-3.583546 -0.8776,1.13357 -1.24327,2.120874 -1.24327,3.071611 0,2.413409 3.03504,3.985781 8.00813,3.985781 5.96039,0 8.7029,-2.596243 8.7029,-6.472324 0,-5.229052 -4.24175,-5.192485 -8.11783,-5.192485 h -1.20671 c -2.52311,0 -4.20518,-0.255968 -4.20518,-1.901474 0,-0.475368 0.1097,-1.060437 0.2194,-1.426105 0,0 1.86491,1.023871 4.60742,1.023871 5.22905,0 8.0447,-2.413409 8.0447,-6.472324 V 9.7837431 c -1.27984,0.5119349 -2.26715,0.7313359 -3.10818,0.7313359 -1.79178,0 -3.69325,-0.7679027 -5.70442,-0.7679027 -3.69325,0 -7.31336,1.6089387 -7.31336,5.9603887 v 1.718639 c 0,1.352972 0.5485,3.254445 1.5358,4.205182 -1.17014,1.389538 -1.9746,2.486542 -1.9746,3.949214 z m 5.15591,-8.702898 v -0.621635 c 0,-2.230575 0.95074,-3.108178 3.43728,-3.108178 1.60894,0 3.25445,0.621635 3.25445,0.621635 v 3.108178 c 0,2.267142 -0.62164,3.54698 -3.32758,3.54698 -2.74251,0 -3.36415,-1.279838 -3.36415,-3.54698 z"
         id="path19" />
      <path
         style="font-weight:bold;font-family:Diavlo;-inkscape-font-specification:'Diavlo Bold';fill:#990033"
         d="m 159.94774,25.4709 c 0,0 -1.46267,0.658202 -3.40071,0.658202 -2.08431,0 -3.29101,-0.841036 -3.29101,-2.486542 0,-3.254445 5.85069,-2.194008 6.69172,-4.132048 z M 148.5389,23.715694 c 0,4.351449 3.69325,5.740987 7.45963,5.740987 2.08431,0 3.91265,-0.658202 5.74099,-0.658202 0.91417,0 1.8649,0.1097 2.81564,0.585068 V 16.000099 c 0,-3.985781 -2.85221,-6.2529227 -8.22753,-6.2529227 -2.99848,0 -7.27679,0.9507367 -7.27679,4.1320487 0,0.987303 0.3291,2.120874 1.38953,3.546979 0,-3.071611 2.77908,-4.132048 5.85069,-4.132048 2.81565,0 3.54698,1.170137 3.54698,2.486542 -1.49924,2.888777 -11.29914,1.097004 -11.29914,7.934996 z m 31.92283,3.181311 c 0,2.303708 4.75369,2.376842 4.75369,2.376842 V 15.780698 c 0.0731,-1.718639 2.01117,-2.559676 3.94921,-2.559676 1.75521,0 3.03505,1.023871 3.03505,3.400713 v 10.27527 c 0,2.303708 4.75368,2.376842 4.75368,2.376842 V 16.073233 c 0,-4.278316 -3.43728,-6.3260567 -7.45963,-6.3260567 -4.57085,0 -6.25292,1.5723727 -6.25292,1.5723727 -1.49924,-1.170138 -3.69325,-1.5723727 -5.77755,-1.5723727 -1.97461,0 -3.65668,0.7679027 -5.44846,0.7679027 -1.8649,0 -3.29101,-0.7679027 -3.29101,-0.7679027 V 26.897005 c 0,2.376842 4.75369,2.376842 4.75369,2.376842 V 13.806091 c 0,0 1.60893,-0.511935 3.47384,-0.511935 2.59624,0 3.51041,1.097004 3.51041,3.035044 z m 25.26768,-10.16557 c 0,-2.230575 0.69477,-3.510413 3.18131,-3.510413 2.26714,0 3.10818,1.060437 3.10818,2.596243 0,1.462672 -0.91417,2.303708 -3.54698,2.303708 -1.09701,0 -2.37685,-0.255967 -2.74251,-0.329101 z m 4.05891,12.725246 c 4.20518,0 7.24023,-1.755206 7.24023,-4.388016 0,-0.91417 -0.36567,-1.901473 -1.13357,-2.998477 -0.0366,2.194008 -2.48655,3.729813 -6.10666,3.729813 -2.74251,0 -4.05891,-1.133571 -4.05891,-3.327579 v -1.316404 c 1.097,0.438801 2.26714,0.658202 3.43728,0.658202 5.77755,0 7.60589,-2.888777 7.60589,-5.996955 0,-3.65668 -2.48654,-6.0700887 -7.71559,-6.0700887 -5.22906,0 -8.08127,2.4134087 -8.08127,6.4357567 v 6.837991 c 0,4.022348 3.25445,6.435757 8.8126,6.435757 z m 21.64752,-6.070089 c 0,1.974608 -2.23057,2.52311 -3.76638,2.52311 -2.74251,0 -5.99695,-0.69477 -6.07009,-3.802948 -1.24327,1.316405 -1.71864,2.413409 -1.71864,3.43728 0,2.523109 3.18131,3.912647 7.78873,3.912647 5.63129,0 8.41036,-2.267141 8.41036,-5.887255 0,-8.702898 -11.81107,-4.424582 -11.81107,-7.971562 0,-1.572372 1.2067,-2.230575 3.76638,-2.230575 3.07161,0 5.66785,1.097004 5.66785,3.364146 0.98731,-1.243271 1.38954,-2.340275 1.38954,-3.291012 0,-2.449976 -2.99848,-3.6932467 -7.42306,-3.6932467 -5.19249,0 -8.08126,2.0111737 -8.08126,6.0700887 0,7.934995 11.84764,3.473846 11.84764,7.569327 z"
         id="path20" />
    </g>
    <path
       style="font-weight:500;font-size:18.5611px;font-family:Diavlo;-inkscape-font-specification:'Diavlo Medium';letter-spacing:-1.5px;fill:#990033;stroke-width:1.54675"
       d="m 242.30524,27.271112 c 0,0.259856 0.24129,0.464028 0.53827,0.464028 h 1.37352 v -1.52201 c 0,-0.222734 -0.24129,-0.464028 -0.51971,-0.464028 h -1.39208 z m 9.27392,-5.828185 c 1.3364,0 1.54057,-1.095105 1.54057,-1.85611 0,0 -0.40835,0.296978 -1.83755,0.296978 h -4.04632 v -3.71222 h 5.45696 c 1.16935,0 1.16935,-1.559133 1.16935,-1.559133 h -8.64947 v 12.064715 c 0,1.057983 1.78187,1.057983 1.78187,1.057983 h 5.69825 c 1.13223,0 1.16935,-1.466327 1.16935,-1.559133 h -6.62631 v -4.73308 z m 13.44167,-5.939552 c 0,-1.057983 -2.02316,-1.057983 -2.02316,-1.057983 v 9.206306 c 0,1.763304 -1.37352,2.672798 -3.341,2.672798 -1.94891,0 -3.32243,-0.909494 -3.32243,-2.672798 v -8.148323 c 0,-1.057983 -2.02316,-1.057983 -2.02316,-1.057983 v 9.484722 c 0,2.709921 2.50574,4.04632 5.34559,4.04632 2.85841,0 5.36416,-1.336399 5.36416,-4.04632 z"
       id="text44"
       transform="scale(0.96042031,1.0412108)"
       aria-label=".EU" />
  </g>
</svg>
